<svg width="24" height="24" viewBox="0 0 24 24" fill="none" xmlns="http://www.w3.org/2000/svg">
  <circle cx="12" cy="12" r="10.5" stroke="currentColor" stroke-width="1.5" fill="none"/>
  <path d="M8 10C8.55228 10 9 9.55228 9 9C9 8.44772 8.55228 8 8 8C7.44772 8 7 8.44772 7 9C7 9.55228 7.44772 10 8 10Z" fill="currentColor"/>
  <path d="M16 10C16.5523 10 17 9.55228 17 9C17 8.44772 16.5523 8 16 8C15.4477 8 15 8.44772 15 9C15 9.55228 15.4477 10 16 10Z" fill="currentColor"/>
  <path d="M8 14C8.5 15.5 10 16.5 12 16.5C14 16.5 15.5 15.5 16 14" stroke="currentColor" stroke-width="1.5" stroke-linecap="round"/>
  <path d="M12 6V3" stroke="currentColor" stroke-width="1.5" stroke-linecap="round"/>
  <path d="M6 12H3" stroke="currentColor" stroke-width="1.5" stroke-linecap="round"/>
  <path d="M18 12H21" stroke="currentColor" stroke-width="1.5" stroke-linecap="round"/>
  <path d="M12 18V21" stroke="currentColor" stroke-width="1.5" stroke-linecap="round"/>
</svg>