<svg width="16" height="16" viewBox="0 0 16 16" fill="none" xmlns="http://www.w3.org/2000/svg">
  <path d="M8 10.5C9.38071 10.5 10.5 9.38071 10.5 8C10.5 6.61929 9.38071 5.5 8 5.5C6.61929 5.5 5.5 6.61929 5.5 8C5.5 9.38071 6.61929 10.5 8 10.5Z" stroke="currentColor" stroke-width="1.2" fill="none"/>
  <path d="M6.5 1.5L9.5 1.5L10 3L11.5 3.5L13.5 2L15 3.5L13.5 5.5L14 6.5L14.5 9.5L14.5 9.5L14 11L13.5 12.5L11.5 14L9.5 13.5L8 14.5L6.5 13.5L4.5 14L3 12.5L4.5 10.5L4 9.5L3.5 6.5L4 5.5L2.5 3.5L4 2L6 3.5L6.5 3L6.5 1.5Z" stroke="currentColor" stroke-width="1.2" stroke-linejoin="round"/>
</svg>